<?xml version="1.0" encoding="UTF-8"?>
<svg id="Layer_1" data-name="Layer 1" xmlns="http://www.w3.org/2000/svg" version="1.1" viewBox="0 0 141.73 141.73">
  <defs>
    <style>
      .cls-1 {
        fill: #efa1d0;
      }

      .cls-1, .cls-2 {
        stroke-width: 0px;
      }

      .cls-2 {
        fill: #000;
      }
    </style>
  </defs>
  <rect class="cls-1" x="21" y="56.69" width="27.75" height="36.93"/>
  <rect class="cls-1" x="67.38" y="93.37" width="29.02" height="20.09"/>
  <rect class="cls-1" x="61.33" y="63.97" width="58.05" height="36.93"/>
  <rect class="cls-1" x="44.8" y="23.29" width="63" height="80.12"/>
  <g>
    <path class="cls-2" d="M59.52,91.85c-.1-.4-.3-.7-.6-.6-.8.2-1.2,2.1-1.2,3.8,1.3-.3,2.1-1.8,1.8-3.2"/>
    <path class="cls-2" d="M89.02,85.25c-.1,1.1-.3,2.2-.6,3.4.2.1.4.2.5.5.1.4-.1.9-.5,1h-.4v.1c.2.6.6.9,1.2.7.7-.2,1.3-.7,1.1-1.9-.3-.8-.6-1.3-1.3-3.8"/>
    <path class="cls-2" d="M80.52,87.05c-.1-.4-.3-.7-.6-.6-.8.2-1.2,2.1-1.2,3.8,1.31-.47,2.08-1.83,1.8-3.2"/>
    <path class="cls-2" d="M85.72,75.05c1.2-.3,2.7-1.9,2.6-4.4l-.2-9.8c-.1-.5-.7-1.5-2.1-1.2-3.5.8-4.1,8.8-3.2,12.7.9,3.1,2.2,2.9,2.9,2.7"/>
    <path class="cls-2" d="M94.82,34.55c-.1-.6-.4-.9-.8-.8-1.2.3-1.8,3.2-1.7,5.6,1.8-.5,3-2.8,2.5-4.8"/>
    <path class="cls-2" d="M75.22,47.25c.7-.2,1.5-1.1,1.5-2.6l-.1-5.7c-.1-.3-.4-.9-1.2-.7-2,.5-2.3,5.1-1.8,7.3.4,2,1.2,1.8,1.6,1.7"/>
    <path class="cls-2" d="M80.92,51.45c.1.3.6.7,1.1.6.5-.1.9-.7.9-2.2v-1.4c-1.3.8-2.3,1.7-2,3"/>
    <path class="cls-2" d="M108.32,93.45c-.1-.5,0-.8.3-1-.2-.7-.4-.9-.8-.8-1.2.3-1.5,3.5-1.1,5.1.2,1.1.5,1.3,1.2,1.1.8-.2,1.3-1.9,1.1-3.9-.4.1-.6-.2-.7-.5"/>
    <path class="cls-2" d="M118.02,97.15c-1.3.3-1.9-.5-2.1-1.5-.3-1.1,0-3.3-.2-4.4-.1-.5-.4-.8-.8-.7-.6.1-.9.9-.9,1.8l.1,5.5-2.4.6-.1-5.5c-.4.3-.8.5-1.3.7.4,3.1-.8,5.4-2.8,5.9-1.2.3-2.2.1-2.8-.9-.6,1.5-1.6,1.8-2.2,2-.9.2-1.6-.2-1.9-1-.3.9-.9,1.8-2.1,2.1-.8.2-1.8,0-2.3-1-.5,1.4-1.3,1.8-2,2-1.4.3-2.2-.5-2.4-1.4-.3-1.1,0-3.3-.2-4.4-.1-.5-.4-.8-.8-.7-.6.1-.9.9-.9,1.8l.1,5.5-2.4.6-.2-5.6c-.4.3-.8.5-1.3.7.4,3.1-.8,5.4-2.8,5.9-1.5.4-2.8-.1-3.2-2-.4-1.9-.2-6.1,3.2-6.9,1.4-.3,2.3.4,2.7,2.1h.2c.4-.1.8-.3,1.2-.6l-.1-2.3,2.4-.6v.9c.5-.9,1.2-1.2,1.7-1.4,1.1-.2,1.9.1,2.3,1.4.3,1.3,0,3.5.2,4.4.1.4.3.7.8.5.6-.1.8-.6.9-1.2v-.1c-.5-2.2,0-6.1,2.9-6.7.9-.2,1.4.1,1.5.5v.1l-.1-3.7v-1.9c-.6,1.3-1.6,2.4-3.3,2.8-1.4.3-2.5-.1-3-1.6-.4.6-.9,1.1-1.4,1.6-.5.9-1.5,1.4-2.3,1.6-1.2.3-2-.1-2.5-.7-.6,1.2-1.6,1.6-2.2,1.8-1,.2-1.9-.2-2.2-1.6v-.1c-.6,1.3-1.7,2.6-3.3,2.9-.4.1-.8.2-1.2.2l.2,11.1c1.8,0,3.9,1.3,6,.8.4-.1.9-.3,1.3-.6.2,1.6-.2,2.8-1.1,3-2.3.6-5.3-2.7-8.2-2-.1,0-.2.1-.4.1l-.2-12.1c-.4.3-.8.5-1.1.6-1.3.3-2.2-.2-2.5-1.4-.1-.3-.1-.6-.1-.9v-.7c0-.2,0-.4-.1-.6-.1-.5-.3-.8-.8-.7-.4.1-.7.4-1.1.9l.1,4.3-2.4.6-.2-11.7,2.4-.9.1,6.1,2.6-3.2,1.6-.4-2.8,3.1c.2-.1.3-.2.5-.2,1.2-.3,2,.4,2.3,1.5,0,.2.1.4.1.6v1.4c.1.3.3.6.8.5.6-.1.8-.6.9-1.2v-.1c-.3-1.9-.3-6.1,3.1-6.9,1.5-.3,2,.3,2.2,1.2.4,1.9-1,3.8-3,4.3,0,.2.1.5.1.7.3,1.1.7,1.3,1.5,1.1,1.3-.3,1.9-1.2,2.5-2.3v-8.7l2.4-.9.2,9.3c0,.2,0,.4.1.5.1.5.4.6.8.4.3-.1.6-.3.8-.7-.2-.8.1-1.4.5-1.7.5-1.8.8-3.6.9-5.3l2.3-.9c1.2,4.2,1.5,4.8,1.8,5.9.1.2.1.4.1.6.3-.3.6-.6.8-.9-.4-2-.1-5.9,3.1-6.6,1.5-.3,2,.3,2.2,1.2.4,1.9-1,3.8-3,4.3,0,.2.1.5.1.7.3,1.1.7,1.3,1.5,1.1,1.3-.3,1.9-1.2,2.5-2.3l-.1-5.5,2.4-.6v.9c.5-.9,1.2-1.2,1.7-1.4,1.1-.2,1.9.1,2.3,1.4.3,1.3,0,3.5.2,4.4.1.4.3.7.8.5.3-.1.4-.1.5-.2.1,1.2-.5,1.9-1.4,2.1-1.3.3-1.9-.5-2.1-1.5-.3-1.1,0-3.3-.2-4.4-.1-.5-.4-.8-.8-.7-.6.1-.9.9-.9,1.8v1.6l.1,3.9.2,9.2c.1.5.4.6.8.4.5-.1.8-.6.9-1.1v-.2c-.4-1.9-.2-6.1,3.2-6.9,1.4-.3,2.3.4,2.7,2.1h.2c.4-.1.8-.3,1.2-.6l-.1-2.3,2.4-.6v.9c.5-.9,1.2-1.2,1.7-1.4,1.1-.2,1.9.1,2.3,1.4.3,1.3,0,3.5.2,4.4.1.4.3.7.8.5.3-.1.4-.1.5-.2.1,1.8-.5,2.5-1.4,2.7M66.82,79.75c-1.5,3.7-4.2,4.9-5.9,5.3-2.5.6-4.8-.5-5.6-3.9-.2-.8-.3-1.7-.3-2.8l-.3-21.8,5.9-2.3.4,23.5c0,.6.1,1,.1,1.4.3,1.2.9,1.4,2.1,1.1,1.6-.4,2.7-2.3,2.9-4.5l-.3-21.8,5.9-2.3.4,23.5c0,.6.1,1,.1,1.4.3,1.2.9,1.4,2.1,1.1,1.3-.3,2.2-1.5,2.7-3.1,0-.1-.1-.2-.1-.3-1.3-5.6.1-15.3,7.3-17,2.4-.6,3.6.1,3.8,1.3l.1.3-.1-2.3,6-1.4.3,14.8c0,.6.1,1,.1,1.4.3,1.2.9,1.4,2.1,1.1.4-.1.6-.2.9-.4-.4,3.2-.9,4.6-3.2,5.2-2.2.5-4.1-.6-5-2.9-.8,2.2-2.3,4.6-5.3,5.3-2.2.5-4.5-.1-6-2.6-1.5,3.8-4.2,5-5.9,5.4-2.1.5-4.2-.2-5.2-2.7M66.52,91.35c-.9.2-.7-1-1.2-.9s-.7.4-1.1.9l.1,6.6-2.4.6v-1.9c-.6,1.3-1.6,2.4-3.3,2.8-1.5.4-2.7-.2-3.2-2-.4-1.9-.3-6.1,3.1-6.9,1.5-.3,2,.3,2.2,1.2.4,1.9-1,3.8-3,4.3,0,.2.1.5.1.7.3,1.1.7,1.3,1.5,1.1,1.3-.3,1.9-1.2,2.5-2.3l-.1-5.5,2.4-.6v1.1c.5-.6,1-1.3,1.8-1.5.7-.2,1.3.3,1.4,1,.3.4,0,1.1-.8,1.3M51.02,101.05l-.2-11.4-.2.1c-1.7.4-2.9,1.4-2.3,4,.2.8.4.9.5,1.1-1.1.3-1.8,0-2.1-1.2-.5-2.2.6-4.6,4.6-5.6,2-.5,2.7-.2,4.3-.6.8-.2,1.4-.5,1.8-.8.3,1.4-.3,2.3-1.6,2.6-.8.2-1.7.2-2.6.2l.2,11.1s-2.4.5-2.4.5ZM41.62,89.55c-6,1.4-8.6-.6-9.5-4.7-1-4.1-.6-10.3-.5-17.7l.1-5.8c-4.2,2.2-6.3,6.3-5.1,11.2.5,2.2,1.1,2.4,1.2,2.7-2.7.6-4.7,0-5.3-2.8-1.4-5.9,5.1-12.8,13.1-14.6.7-.2,1.1-.2,2-.3-.5,15.2-1,21.2-.2,24.7.5,2.4,1.7,3.6,3.7,3.1,3.5-.8,4.9-2.1,4.7-16.3l-.2-13.5,5.8-1.4.3,13.6c.3,13.3-.8,19.7-10.1,21.8M64.12,33.35c2.2-.5,4.2,0,4.7,2.3.3,1.3.1,2.3-1.2,2.6-.4.1-.9.1-1.5-.3.5-.4.8-1.5.6-2.5-.2-.8-.7-1.4-1.8-1.1-2.6.6-3.5,7.4-2.4,12.3.5,2.2,1.4,3.6,3.7,3.1,1.7-.4,3-1.5,3.8-2.9-.7-3.2.1-8.7,4.2-9.6,1.4-.3,2.1.1,2.2.8v.2-1.3l3.4-.8.2,8.5c0,.3,0,.6.1.8.2.7.6,1,1.2.8.9-.2,1.3-1.4,1.4-2.7l-.2-10c-.1-3.6,1.8-4.7,3.4-5.1,1.4-.3,3.1.4,3.4,1.9.1.4.1.7.2,1l-1.1.3c0-.2-.1-.4-.1-.7-.1-.5-.6-.7-1.1-.6s-1.2.7-1.2,2.3v2l1.7-.4.1,1-1.8.4.2,13.5c.1,3.6-1.8,4.7-3.3,5.1-1.4.3-3.1-.4-3.4-1.9-.5-2.2,1.2-3.3,3.3-4.5v-1.2c-.8,1.5-2,2-2.8,2.2-1.3.3-2.4-.2-2.8-1.7-.5,1.3-1.3,2.6-3.1,3-1.4.3-2.9-.1-3.7-2-1.02,2.17-2.97,3.75-5.3,4.3-3.5.8-5.6-.4-6.6-4.7-.9-4.4-.7-13,5.6-14.4M93.52,32.55c2.1-.5,2.9.5,3.2,1.7.6,2.8-1.5,5.5-4.3,6.3,0,.2.1.5.1.7.3,1.5,1.1,1.8,1.9,1.6.9-.2,1.9-1.1,2.5-1.9.1,2.8-1.4,4.1-3.3,4.5-2.2.5-3.9-.2-4.6-2.9-.6-2.8-.4-8.9,4.5-10M93.22,26.55l2.5-.6-1.9,5.2-1.7.4s1.1-5,1.1-5ZM128.02,74.65l8.1-4.4-8.1-4.4,7.3-5.6-8.7-3.1,6.3-6.7-9.1-1.7,5.2-7.5-9.2-.3,4-8.2-9.2,1.1,2.6-8.8-8.9,2.5,1.2-9.1-8.4,3.9-.3-8.9-7.7,5.1-1.7-9-6.7,6.3-3.1-8.6-5.7,7.3-4.5-8-4.4,8-5.7-7.2-3.1,8.6-6.7-6.3-1.7,9-7.7-5.1-.3,9.1-8.4-3.9,1.2,9.1-8.9-2.5,2.6,8.8-9.2-1.1,4,8.2-9.3.1,5.2,7.5-9.1,1.7,6.4,6.7-8.7,3.1,7.3,5.6-8.1,4.4,8.1,4.4-7.3,5.6,8.7,3.1-6.4,6.6,9.1,1.7-5.2,7.5,9.2.3-4,8.3,9.2-1.1-2.6,8.8,8.9-2.6-1.2,9.1,8.4-3.9.3,9.1,7.7-5.1,1.7,9,6.7-6.2,3.1,8.6,5.7-7.2,4.4,8,4.5-8,5.7,7.2,3.1-8.6,6.7,6.2,1.7-9,7.7,5.1.3-9.1,8.4,3.9-1.2-9.1,8.9,2.6-2.6-8.8,9.2,1.1-4-8.3,9.2-.3-5.2-7.5,9.1-1.7-6.3-6.6,8.7-3.1-7.2-5.7h0Z"/>
    <path class="cls-2" d="M100.12,94.05c-.1-.2-.3-.5-.8-.4-1.4.3-1.6,3.5-1.2,5,.3,1.3.8,1.2,1.1,1.1.5-.1,1-.7,1-1.7v-.1l-.1-3.9Z"/>
    <path class="cls-2" d="M97.52,83.05c-.1-.4-.3-.7-.6-.6-.8.2-1.2,2.1-1.2,3.8,1.3-.3,2.1-1.8,1.8-3.2"/>
    <path class="cls-2" d="M84.22,99.05c-.1-.5,0-.8.3-1-.2-.7-.4-.9-.8-.8-1.2.3-1.5,3.5-1.1,5.1.2,1.1.5,1.3,1.2,1.1.8-.2,1.3-1.9,1.1-3.9-.5.1-.6-.2-.7-.5"/>
  </g>
</svg>